<svg xmlns="http://www.w3.org/2000/svg" width="187.78" height="35" viewBox="0 0 187.78 35"><rect class="svg__rect" x="0" y="0" width="58.79" height="35" fill="#005384"/><rect class="svg__rect" x="56.79" y="0" width="130.99" height="35" fill="#FFF700"/><path class="svg__text" d="M15.78 22L14.31 22L14.31 13.47L15.78 13.47L15.78 22ZM22.07 22L20.59 22L20.59 13.47L22.07 13.47L25.89 19.54L25.89 13.47L27.36 13.47L27.36 22L25.88 22L22.07 15.95L22.07 22ZM38.86 22L37.31 22L40.54 13.47L41.87 13.47L45.10 22L43.55 22L42.85 20.01L39.55 20.01L38.86 22ZM41.20 15.28L39.96 18.82L42.44 18.82L41.20 15.28Z" fill="#FFF700"/><path class="svg__text" d="M73.36 22L70.98 22L70.98 13.60L73.36 13.60L73.36 16.76L76.60 16.76L76.60 13.60L78.97 13.60L78.97 22L76.60 22L76.60 18.72L73.36 18.72L73.36 22ZM90.88 22L84.13 22L84.13 13.60L90.72 13.60L90.72 15.44L86.49 15.44L86.49 16.85L90.22 16.85L90.22 18.63L86.49 18.63L86.49 20.17L90.88 20.17L90.88 22ZM97.10 22L94.67 22L98.38 13.60L100.73 13.60L104.44 22L101.97 22L101.31 20.37L97.76 20.37L97.10 22ZM99.54 15.93L98.45 18.61L100.61 18.61L99.54 15.93ZM110.97 22L108.60 22L108.60 13.60L112.44 13.60Q113.58 13.60 114.42 13.98Q115.26 14.35 115.71 15.06Q116.17 15.76 116.17 16.71L116.17 16.71Q116.17 17.62 115.74 18.30Q115.32 18.98 114.52 19.36L114.52 19.36L116.34 22L113.79 22L112.27 19.77L110.97 19.77L110.97 22ZM110.97 15.47L110.97 17.93L112.29 17.93Q113.02 17.93 113.40 17.61Q113.77 17.29 113.77 16.71L113.77 16.71Q113.77 16.12 113.40 15.79Q113.02 15.47 112.29 15.47L112.29 15.47L110.97 15.47ZM122.75 15.48L120.17 15.48L120.17 13.60L127.69 13.60L127.69 15.48L125.12 15.48L125.12 22L122.75 22L122.75 15.48ZM136.60 22L132.06 22L132.06 13.60L136.36 13.60Q137.97 13.60 138.81 14.19Q139.65 14.79 139.65 15.79L139.65 15.79Q139.65 16.39 139.35 16.87Q139.06 17.34 138.52 17.62L138.52 17.62Q139.24 17.87 139.65 18.41Q140.05 18.94 140.05 19.70L140.05 19.70Q140.05 20.80 139.17 21.40Q138.28 22 136.60 22L136.60 22ZM134.42 18.58L134.42 20.28L136.41 20.28Q137.66 20.28 137.66 19.43L137.66 19.43Q137.66 18.58 136.41 18.58L136.41 18.58L134.42 18.58ZM134.42 15.31L134.42 16.94L136.05 16.94Q137.25 16.94 137.25 16.12L137.25 16.12Q137.25 15.31 136.05 15.31L136.05 15.31L134.42 15.31ZM151.51 22L144.77 22L144.77 13.60L151.36 13.60L151.36 15.44L147.13 15.44L147.13 16.85L150.86 16.85L150.86 18.63L147.13 18.63L147.13 20.17L151.51 20.17L151.51 22ZM157.74 22L155.31 22L159.02 13.60L161.36 13.60L165.08 22L162.61 22L161.95 20.37L158.40 20.37L157.74 22ZM160.18 15.93L159.09 18.61L161.25 18.61L160.18 15.93ZM171.03 15.48L168.44 15.48L168.44 13.60L175.97 13.60L175.97 15.48L173.40 15.48L173.40 22L171.03 22L171.03 15.48Z" fill="#005384" x="69.78999999999999"/></svg>