<svg xmlns="http://www.w3.org/2000/svg" width="163.74" height="35" viewBox="0 0 163.74 35"><rect class="svg__rect" x="0" y="0" width="92.57000000000001" height="35" fill="#005384"/><rect class="svg__rect" x="90.57000000000001" y="0" width="73.16999999999999" height="35" fill="#FFF700"/><path class="svg__text" d="M15.70 22L14.22 22L14.22 13.47L15.70 13.47L15.70 17.47L16.52 16.46L19.02 13.47L20.81 13.47L17.64 17.25L20.99 22L19.23 22L16.67 18.31L15.70 19.34L15.70 22ZM26.33 22L24.86 22L24.86 13.47L26.33 13.47L26.33 22ZM30.88 18.19L30.88 18.19L30.88 17.39Q30.88 16.19 31.30 15.27Q31.73 14.35 32.53 13.85Q33.33 13.35 34.38 13.35L34.38 13.35Q35.79 13.35 36.65 14.12Q37.51 14.89 37.65 16.29L37.65 16.29L36.18 16.29Q36.07 15.37 35.64 14.96Q35.21 14.55 34.38 14.55L34.38 14.55Q33.41 14.55 32.89 15.26Q32.38 15.96 32.36 17.33L32.36 17.33L32.36 18.09Q32.36 19.47 32.86 20.20Q33.35 20.92 34.31 20.92L34.31 20.92Q35.18 20.92 35.62 20.53Q36.06 20.14 36.18 19.22L36.18 19.22L37.65 19.22Q37.53 20.59 36.65 21.35Q35.77 22.12 34.31 22.12L34.31 22.12Q33.29 22.12 32.51 21.63Q31.74 21.15 31.31 20.26Q30.89 19.37 30.88 18.19ZM43.45 22L41.97 22L41.97 13.47L43.45 13.47L43.45 17.47L44.27 16.46L46.77 13.47L48.56 13.47L45.39 17.25L48.74 22L46.98 22L44.42 18.31L43.45 19.34L43.45 22ZM52.25 18.00L52.25 18.00L52.25 17.52Q52.25 16.28 52.69 15.32Q53.14 14.37 53.94 13.86Q54.75 13.35 55.79 13.35Q56.83 13.35 57.64 13.85Q58.44 14.35 58.88 15.29Q59.32 16.23 59.33 17.48L59.33 17.48L59.33 17.96Q59.33 19.21 58.89 20.16Q58.46 21.10 57.66 21.61Q56.85 22.12 55.80 22.12L55.80 22.12Q54.76 22.12 53.95 21.61Q53.14 21.10 52.70 20.17Q52.26 19.23 52.25 18.00ZM53.73 17.46L53.73 17.96Q53.73 19.36 54.28 20.13Q54.83 20.90 55.80 20.90L55.80 20.90Q56.79 20.90 57.32 20.15Q57.85 19.40 57.85 17.96L57.85 17.96L57.85 17.51Q57.85 16.09 57.31 15.34Q56.77 14.58 55.79 14.58L55.79 14.58Q54.83 14.58 54.29 15.33Q53.74 16.09 53.73 17.46L53.73 17.46ZM65.28 22L63.79 22L63.79 13.47L69.21 13.47L69.21 14.66L65.28 14.66L65.28 17.20L68.71 17.20L68.71 18.38L65.28 18.38L65.28 22ZM74.86 22L73.37 22L73.37 13.47L78.79 13.47L78.79 14.66L74.86 14.66L74.86 17.20L78.29 17.20L78.29 18.38L74.86 18.38L74.86 22Z" fill="#FFFA00"/><path class="svg__text" d="M106.88 18.95L103.68 13.60L106.19 13.60L108.18 16.94L110.17 13.60L112.47 13.60L109.26 18.99L109.26 22L106.88 22L106.88 18.95ZM116.13 17.80L116.13 17.80Q116.13 16.55 116.73 15.55Q117.34 14.56 118.40 14.00Q119.46 13.43 120.80 13.43L120.80 13.43Q122.13 13.43 123.19 14.00Q124.25 14.56 124.86 15.55Q125.46 16.55 125.46 17.80L125.46 17.80Q125.46 19.05 124.86 20.04Q124.25 21.04 123.19 21.60Q122.13 22.17 120.80 22.17L120.80 22.17Q119.46 22.17 118.40 21.60Q117.34 21.04 116.73 20.04Q116.13 19.05 116.13 17.80ZM118.53 17.80L118.53 17.80Q118.53 18.51 118.83 19.05Q119.13 19.60 119.65 19.90Q120.16 20.20 120.80 20.20L120.80 20.20Q121.43 20.20 121.95 19.90Q122.46 19.60 122.76 19.05Q123.06 18.51 123.06 17.80L123.06 17.80Q123.06 17.09 122.76 16.54Q122.46 16 121.95 15.70Q121.43 15.40 120.80 15.40L120.80 15.40Q120.16 15.40 119.64 15.70Q119.13 16 118.83 16.54Q118.53 17.09 118.53 17.80ZM130.12 18.26L130.12 18.26L130.12 13.60L132.50 13.60L132.50 18.19Q132.50 20.20 134.10 20.20L134.10 20.20Q135.68 20.20 135.68 18.19L135.68 18.19L135.68 13.60L138.02 13.60L138.02 18.26Q138.02 20.13 136.98 21.15Q135.94 22.17 134.07 22.17L134.07 22.17Q132.20 22.17 131.16 21.15Q130.12 20.13 130.12 18.26ZM145.49 22L143.11 22L143.11 13.60L146.95 13.60Q148.09 13.60 148.93 13.98Q149.77 14.35 150.23 15.06Q150.68 15.76 150.68 16.71L150.68 16.71Q150.68 17.62 150.26 18.30Q149.83 18.98 149.04 19.36L149.04 19.36L150.85 22L148.30 22L146.78 19.77L145.49 19.77L145.49 22ZM145.49 15.47L145.49 17.93L146.80 17.93Q147.54 17.93 147.91 17.61Q148.28 17.29 148.28 16.71L148.28 16.71Q148.28 16.12 147.91 15.79Q147.54 15.47 146.80 15.47L146.80 15.47L145.49 15.47Z" fill="#005384" x="103.57000000000001"/></svg>