<svg xmlns="http://www.w3.org/2000/svg" width="194.66000000000003" height="35" viewBox="0 0 194.66000000000003 35"><rect class="svg__rect" x="0" y="0" width="88.08" height="35" fill="#FFF700"/><rect class="svg__rect" x="86.08" y="0" width="108.58000000000001" height="35" fill="#005384"/><path class="svg__text" d="M15.70 22L14.22 22L14.22 13.47L17.48 13.47Q18.91 13.47 19.75 14.21Q20.59 14.96 20.59 16.18L20.59 16.18Q20.59 17.44 19.77 18.13Q18.95 18.83 17.46 18.83L17.46 18.83L15.70 18.83L15.70 22ZM15.70 14.66L15.70 17.64L17.48 17.64Q18.27 17.64 18.69 17.27Q19.10 16.90 19.10 16.19L19.10 16.19Q19.10 15.50 18.68 15.09Q18.26 14.68 17.52 14.66L17.52 14.66L15.70 14.66ZM26.91 18.86L24.05 13.47L25.70 13.47L27.66 17.51L29.62 13.47L31.26 13.47L28.40 18.86L28.40 22L26.91 22L26.91 18.86ZM36.86 14.66L34.22 14.66L34.22 13.47L40.99 13.47L40.99 14.66L38.33 14.66L38.33 22L36.86 22L36.86 14.66ZM46.23 22L44.74 22L44.74 13.47L46.23 13.47L46.23 17.02L50.04 17.02L50.04 13.47L51.52 13.47L51.52 22L50.04 22L50.04 18.21L46.23 18.21L46.23 22ZM55.99 18.00L55.99 18.00L55.99 17.52Q55.99 16.28 56.43 15.32Q56.87 14.37 57.68 13.86Q58.48 13.35 59.53 13.35Q60.57 13.35 61.38 13.85Q62.18 14.35 62.62 15.29Q63.06 16.23 63.07 17.48L63.07 17.48L63.07 17.96Q63.07 19.21 62.63 20.16Q62.20 21.10 61.39 21.61Q60.59 22.12 59.54 22.12L59.54 22.12Q58.50 22.12 57.69 21.61Q56.88 21.10 56.44 20.17Q55.99 19.23 55.99 18.00ZM57.47 17.46L57.47 17.96Q57.47 19.36 58.02 20.13Q58.57 20.90 59.54 20.90L59.54 20.90Q60.52 20.90 61.05 20.15Q61.58 19.40 61.58 17.96L61.58 17.96L61.58 17.51Q61.58 16.09 61.05 15.34Q60.51 14.58 59.53 14.58L59.53 14.58Q58.57 14.58 58.02 15.33Q57.48 16.09 57.47 17.46L57.47 17.46ZM69.01 22L67.53 22L67.53 13.47L69.01 13.47L72.83 19.54L72.83 13.47L74.30 13.47L74.30 22L72.82 22L69.01 15.95L69.01 22Z" fill="#005384"/><path class="svg__text" d="M99.19 20.93L99.19 20.93L100.48 19.40Q101.15 20.27 101.93 20.27L101.93 20.27Q101.93 20.27 101.94 20.27L101.94 20.27Q102.45 20.27 102.72 19.96Q102.99 19.65 102.99 19.05L102.99 19.05L102.99 15.44L100.09 15.44L100.09 13.60L105.35 13.60L105.35 18.91Q105.35 20.54 104.52 21.36Q103.70 22.17 102.11 22.17L102.11 22.17Q101.18 22.17 100.43 21.85Q99.67 21.53 99.19 20.93ZM110.01 17.80L110.01 17.80Q110.01 16.55 110.61 15.55Q111.21 14.56 112.28 14.00Q113.34 13.43 114.67 13.43L114.67 13.43Q116.00 13.43 117.06 14.00Q118.13 14.56 118.73 15.55Q119.34 16.55 119.34 17.80L119.34 17.80Q119.34 19.05 118.73 20.04Q118.13 21.04 117.07 21.60Q116.01 22.17 114.67 22.17L114.67 22.17Q113.34 22.17 112.28 21.60Q111.21 21.04 110.61 20.04Q110.01 19.05 110.01 17.80ZM112.40 17.80L112.40 17.80Q112.40 18.51 112.70 19.05Q113.01 19.60 113.52 19.90Q114.04 20.20 114.67 20.20L114.67 20.20Q115.31 20.20 115.82 19.90Q116.34 19.60 116.64 19.05Q116.94 18.51 116.94 17.80L116.94 17.80Q116.94 17.09 116.64 16.54Q116.34 16 115.82 15.70Q115.31 15.40 114.67 15.40L114.67 15.40Q114.03 15.40 113.52 15.70Q113.01 16 112.70 16.54Q112.40 17.09 112.40 17.80ZM124.00 18.26L124.00 18.26L124.00 13.60L126.38 13.60L126.38 18.19Q126.38 20.20 127.97 20.20L127.97 20.20Q129.55 20.20 129.55 18.19L129.55 18.19L129.55 13.60L131.90 13.60L131.90 18.26Q131.90 20.13 130.86 21.15Q129.82 22.17 127.95 22.17L127.95 22.17Q126.07 22.17 125.04 21.15Q124.00 20.13 124.00 18.26ZM139.36 22L136.98 22L136.98 13.60L140.83 13.60Q141.97 13.60 142.81 13.98Q143.64 14.35 144.10 15.06Q144.56 15.76 144.56 16.71L144.56 16.71Q144.56 17.62 144.13 18.30Q143.70 18.98 142.91 19.36L142.91 19.36L144.72 22L142.18 22L140.66 19.77L139.36 19.77L139.36 22ZM139.36 15.47L139.36 17.93L140.68 17.93Q141.41 17.93 141.78 17.61Q142.16 17.29 142.16 16.71L142.16 16.71Q142.16 16.12 141.78 15.79Q141.41 15.47 140.68 15.47L140.68 15.47L139.36 15.47ZM151.68 22L149.35 22L149.35 13.60L151.30 13.60L155.01 18.07L155.01 13.60L157.34 13.60L157.34 22L155.39 22L151.68 17.52L151.68 22ZM169.24 22L162.50 22L162.50 13.60L169.09 13.60L169.09 15.44L164.86 15.44L164.86 16.85L168.59 16.85L168.59 18.63L164.86 18.63L164.86 20.17L169.24 20.17L169.24 22ZM176.18 18.95L172.97 13.60L175.48 13.60L177.47 16.94L179.46 13.60L181.77 13.60L178.55 18.99L178.55 22L176.18 22L176.18 18.95Z" fill="#FFF700" x="99.08"/></svg>